<svg width="261" height="108" viewBox="0 0 261 108" fill="none" xmlns="http://www.w3.org/2000/svg">
<rect width="261" height="108" rx="10" fill="white"/>
<path fill-rule="evenodd" clip-rule="evenodd" d="M58.7527 41.9072C62.0469 41.9674 62.0096 42.1297 64.1697 40.743C65.648 39.8026 67.0953 38.8143 68.5091 37.7795C70.7161 36.1619 70.9374 35.4775 67.0274 34.6043C63.845 33.8935 62.8804 33.6374 59.5128 35.5569C54.821 38.2317 41.0968 47.8342 27.126 61.17C23.5275 61.8038 20.564 63.1809 19.401 64.0264C18.2367 64.8743 18.1525 65.0932 19.2951 66.7794C20.8563 69.0814 20.9164 69.1332 23.5022 67.8907C24.8781 67.228 26.9155 66.0374 28.7148 64.6602C36.6527 63.1809 54.3279 63.0751 76.1307 69.2125C78.0635 69.7574 78.5987 70.058 77.1891 66.9899C75.8397 64.0517 75.9984 64.2104 72.2147 63.2855C58.1513 59.8446 43.1089 59.3695 34.4301 60.215C43.2136 52.9145 50.0739 47.0934 58.7527 41.9072V41.9072Z" fill="black"/>
<path fill-rule="evenodd" clip-rule="evenodd" d="M79.0774 37.1445C77.5283 37.5522 72.9387 38.9438 70.9278 39.5788C68.9168 40.2138 68.7244 40.215 68.811 42.1189C68.9168 44.4474 69.1285 44.4474 70.5044 43.9182C71.8803 43.389 78.5747 41.3083 80.5062 40.7563C81.988 40.3329 82.0168 39.9252 81.7763 38.5336C81.4191 36.4698 81.0895 36.6153 79.0774 37.1445V37.1445ZM63.4397 45.2412C61.9315 46.4319 56.0574 51.5915 52.6441 55.4811C51.712 56.5431 51.6915 56.1955 52.5647 58.8944C52.9796 60.1765 53.3573 62.0708 55.1842 60.0058C57.0099 57.9407 65.186 51.1153 66.7736 49.8452C68.3612 48.5751 68.3768 48.3274 67.0117 45.9556C65.5047 43.3373 64.9479 44.0505 63.4397 45.2412Z" fill="black"/>
<path fill-rule="evenodd" clip-rule="evenodd" d="M95.3345 33.8911C91.048 34.1292 87.7923 36.4312 83.1101 40.5589C80.7007 42.6762 78.352 44.8616 76.067 47.1125C73.2803 46.3789 70.9061 45.6212 70.4094 45.4011C69.695 45.0836 69.2981 45.1629 69.4569 46.1949C69.6926 47.7295 70.0967 49.2173 72.8353 50.3996C70.6279 52.7132 68.4952 55.0971 66.4404 57.5473C65.5637 58.5925 65.5673 58.7356 66.758 60.5637C67.8524 62.2415 68.4406 61.9288 69.1393 61.1976C71.5159 58.7127 74.649 55.297 78.1357 51.8524C80.398 52.3347 83.0007 52.6282 84.4463 52.8146C83.8602 53.5516 83.3002 54.309 82.7673 55.0853C81.8064 56.4925 81.9735 57.4667 83.0055 59.1325C84.0374 60.8007 85.3075 62.2283 89.1177 60.7201C92.9267 59.2119 96.2606 56.9099 97.0556 55.6386C97.8494 54.3697 97.9288 54.1304 95.9443 54.6872C93.9598 55.2441 91.4197 56.4324 87.4507 56.9893C88.0088 55.9224 89.0491 54.5983 90.2687 53.2572C93.6134 53.4088 98.5037 53.3378 102.533 51.3533C105.113 50.082 104.597 47.7812 103.087 45.5586C101.58 43.336 100.071 41.7484 95.468 43.6535C92.8232 44.748 90.1015 46.7878 87.6455 49.2269C85.8198 49.0092 83.1955 48.7037 81.751 48.4139C84.9503 45.4961 88.3179 42.784 91.6025 40.8753C94.8402 38.9942 96.6034 39.2877 97.2384 40.7959C97.6678 41.8146 98.4592 42.161 99.3023 41.5103C100.175 40.8344 100.771 39.6052 100.691 38.3351C100.511 35.4197 98.6636 33.7059 95.3345 33.8911V33.8911ZM97.9432 46.4823C100.96 45.2122 102.586 47.7211 99.3588 48.4957C97.6642 48.9022 95.9467 49.3376 94.1751 49.4554C95.6328 48.1926 97.1987 46.7962 97.9432 46.4823V46.4823ZM164.482 35.6627C164.027 36.0211 162.065 38.0176 159.45 40.7345C156 41.2288 152.485 41.7953 148.924 42.4364C146.39 42.8922 146.92 43.3877 147.445 45.0823C147.868 46.4595 148.222 47.0151 149.667 46.6699C150.966 46.3584 152.305 46.0686 153.66 45.7859C149.195 48.4247 141.708 52.3889 135.084 56.1955C137.374 53.8268 139.739 51.5324 142.176 49.3159C143.233 48.3634 142.915 48.0458 141.858 46.2466C140.705 44.2874 140.587 43.7064 139.105 44.8695C137.626 46.0337 130.216 53.8658 126.194 58.311C125.19 59.4223 125.559 60.322 126.935 61.6979C128.311 63.0738 128.628 63.4972 131.061 62.1213C133.437 60.7802 144.397 54.2988 150.782 49.8559C146.849 54.027 143.204 57.9406 141.621 59.6882C140.618 60.7971 140.881 61.1699 142.257 62.4388C143.686 63.7594 143.951 64.238 146.385 62.8645C148.49 61.6738 160.153 53.588 167.214 48.5462C164.294 51.2908 160.673 54.9651 158.116 58.3122C157.205 59.5077 157.271 59.794 158.647 61.3828C160.021 62.9704 160.34 63.0762 161.609 61.8061C162.88 60.5349 170.183 54.0799 176.744 51.3281C173.676 55.6675 171.877 57.7843 170.923 58.9497C169.972 60.1127 170.395 60.7213 172.194 62.1237C173.653 63.2626 173.806 63.087 175.593 61.9517C178.238 60.2739 181.355 59.0676 184.453 57.7794C184.621 59.8541 185.607 62.2283 187.524 62.2283C189.809 62.2283 198.423 57.3332 206.723 51.5506C207.376 52.3877 208.125 53.0047 208.798 53.5363C205.606 54.9795 202.716 56.4312 200.738 57.5726C199.136 58.4987 198.939 58.4181 199.681 60.0057C200.421 61.5933 200.097 61.7556 201.374 61.9108C212.117 63.2217 216.364 59.794 216.364 56.4071C216.364 54.9182 215.494 53.8886 214.626 53.1442C216.555 52.2169 219.291 51.2968 221.673 50.3948C222.481 53.5627 226.442 53.8321 226.747 55.9585C227.006 57.7674 221.044 58.5239 218.715 58.1006C216.387 57.6772 217.207 59.0074 218.609 60.2174C220.157 61.5536 220.507 62.357 223.796 62.1225C228.451 61.7917 233.001 60.0057 233.001 57.0434C233.001 52.9145 228.173 51.1946 227.394 49.5276C226.765 48.1818 228.769 47.5034 231.31 47.94C232.316 49.156 232.076 49.1668 234.287 48.7735C235.058 48.6405 235.825 48.4885 236.589 48.3177C237.165 48.1793 237.106 48.1793 236.979 47.4637C236.899 46.9815 236.79 46.5044 236.654 46.0349C236.336 44.9236 236.282 44.7648 229.721 44.2356C225.58 43.9025 221.948 45.8389 221.566 48.8024C219.064 49.5769 215.639 50.6269 212.87 51.7731C209.959 49.3688 210.122 47.8209 213.346 47.8209C215.885 47.8209 217.391 48.0458 217.99 48.1517C219.338 48.3898 219.816 47.8871 219.575 46.3524C219.373 45.0439 219.39 45.0258 218.345 44.5664C217.354 44.1298 215.131 43.7076 213.966 43.7076C207.168 43.7076 204.518 46.955 205.864 50.1362C202.333 52.2457 194.206 56.2327 192.287 57.0434C190.48 57.8023 189.447 58.4674 189.867 55.7589C195.033 54.021 203.397 51.1801 203.397 48.575C203.397 45.294 200.647 44.4473 197.682 44.4473C190.741 44.4473 185.936 50.6846 184.728 55.0974C183.412 55.5484 181.364 56.0211 179.813 56.5118C180.898 55.03 182.261 52.1627 182.987 50.3731C183.729 48.5474 183.729 48.5209 182.67 47.4349C181.587 46.3248 181.533 46.3512 180.447 46.5641C178.756 46.8936 175.366 48.4692 173.144 49.9497C174.626 48.4692 174.838 48.1505 175.475 47.4108C176.109 46.6699 175.687 46.1395 174.627 45.0811C173.413 43.8664 173.38 43.4587 172.424 44.0781C168.813 46.0782 159.46 51.7322 150.406 56.9339C152.602 54.6692 159.057 48.3321 163.408 44.0985C175.09 42.4604 188.254 41.918 202.161 42.9644C204.522 43.1412 203.643 42.2235 202.481 40.7417C201.316 39.26 200.997 38.7657 198.988 38.625C190.076 38.0032 179.489 38.3796 167.974 39.6533C168.462 38.999 168.107 38.5191 167.237 37.0374C166.082 35.0806 165.964 34.4996 164.482 35.6627V35.6627ZM202.41 59.6388C204.362 58.3796 208.281 56.5214 210.561 55.2513C212.316 57.1612 209.481 58.9701 202.41 59.6388ZM199.162 47.1029C201.811 47.6333 198.243 49.7729 190.942 52.7773C193.007 49.6731 196.84 46.6375 199.162 47.1029Z" fill="black"/>
<path fill-rule="evenodd" clip-rule="evenodd" d="M150.874 37.4307C150.098 35.457 150.021 35.4233 149.011 35.4233C135.992 35.4233 124.337 36.7956 112.571 38.9148C110.463 39.2949 110.785 39.6798 111.596 41.3407C112.428 43.0413 113.069 43.0786 113.91 42.9487C115.467 42.6991 117.02 42.4309 118.57 42.1441C116.767 43.7419 115.01 45.3911 113.302 47.0897C111.421 47.3495 109.549 47.6684 107.688 48.0459C105.878 48.4187 106.066 48.5534 106.686 50.3539C107.154 51.7154 107.458 52.1988 108.216 52.0678L108.525 52.0172C104.706 56.1089 101.085 60.3605 98.5301 63.8556C97.6077 65.1172 97.4621 65.7655 98.286 68.0579C99.2626 70.7784 99.6427 70.9023 100.8 69.3809C104.148 64.9741 110.545 57.5281 116.795 50.9949C120.818 50.6991 125.085 50.4802 130.559 50.7015C132.264 50.77 132.222 50.159 131.372 47.9148C130.634 45.97 130.443 45.8136 129.385 45.8232C127.323 45.8413 124.569 45.9628 121.538 46.1997C123.823 43.9783 125.963 42.0431 127.783 40.6119C131.127 40.2306 135.915 39.8578 139.551 39.889C140.385 41.378 140.916 41.3828 142.292 41.1832C143.671 40.9835 147.324 40.5938 149.393 40.1861C151.61 39.7531 151.701 39.539 150.874 37.4307V37.4307Z" fill="black"/>
<path fill-rule="evenodd" clip-rule="evenodd" d="M58.2716 40.031C61.5658 40.0899 61.5297 40.2535 63.6898 38.8668C65.1683 37.9267 66.6156 36.9383 68.0292 35.9033C70.235 34.2856 70.4563 33.6013 66.5475 32.7281C63.3651 32.0173 62.4005 31.7611 59.0329 33.6807C54.3423 36.3555 40.6169 45.958 26.6461 59.2949C23.0476 59.9288 20.0841 61.3059 18.9199 62.1514C17.7544 62.9969 17.6715 63.2182 18.814 64.902C20.3752 67.2064 20.4353 67.2581 23.0223 66.0157C24.3982 65.353 26.4357 64.1623 28.2337 62.7852C36.1716 61.3059 53.8468 61.2 75.6496 67.3375C77.5812 67.8799 78.1176 68.183 76.708 65.1149C75.3586 62.1767 75.5173 62.3354 71.7336 61.4105C57.6702 57.9671 42.6278 57.4945 33.949 58.34C42.7337 51.0383 49.5928 45.2171 58.2716 40.031Z" fill="#CF4044"/>
<path fill-rule="evenodd" clip-rule="evenodd" d="M78.5963 35.268C77.0472 35.6746 72.4576 37.0661 70.4467 37.7011C68.4357 38.3362 68.2433 38.3386 68.3299 40.2413C68.4357 42.5697 68.6474 42.5697 70.0233 42.0417C71.3992 41.5125 78.0936 39.4318 80.0251 38.8798C81.5069 38.4564 81.5357 38.0487 81.2952 36.6572C80.9392 34.5933 80.6084 34.7388 78.5963 35.268V35.268ZM62.9586 43.3647C61.4504 44.5554 55.5763 49.7151 52.163 53.6047C51.2309 54.6667 51.2104 54.3191 52.0836 57.018C52.4997 58.3001 52.8774 60.1944 54.7031 58.1293C56.53 56.0642 64.7049 49.2388 66.2925 47.9687C67.8801 46.6987 67.8957 46.4509 66.5306 44.0791C65.0236 41.4596 64.4668 42.1728 62.9586 43.3647V43.3647Z" fill="#CF4044"/>
<path fill-rule="evenodd" clip-rule="evenodd" d="M94.8534 32.0136C90.5681 32.2518 87.3124 34.5538 82.629 38.6815C80.2199 40.7991 77.8712 42.9845 75.5859 45.2351C72.7992 44.5002 70.4238 43.7437 69.9283 43.5236C69.2139 43.2061 68.817 43.2855 68.9758 44.3174C69.2115 45.8533 69.6156 47.3399 72.3554 48.5221C70.1482 50.8355 68.0151 53.2185 65.9593 55.6675C65.0826 56.715 65.0862 56.8582 66.2769 58.6839C67.3713 60.3629 67.9595 60.0514 68.6582 59.3201C71.036 56.8353 74.1679 53.4184 77.6558 49.9738C79.9181 50.4561 82.5196 50.7496 83.9664 50.936C83.3803 51.673 82.8203 52.4304 82.2874 53.2067C81.3265 54.6139 81.4936 55.5893 82.5256 57.2551C83.5575 58.9232 84.8276 60.3509 88.6378 58.8426C92.448 57.3344 95.7819 55.0324 96.5757 53.7624C97.3695 52.4923 97.4489 52.2542 95.4644 52.8098C93.4799 53.3643 90.9398 54.555 86.9708 55.1118C87.5301 54.045 88.5692 52.7196 89.79 51.3798C93.1347 51.5301 98.025 51.4604 102.053 49.4759C104.634 48.2046 104.117 45.9038 102.609 43.6812C101.1 41.4586 99.5921 39.871 94.9881 41.7761C92.3434 42.8706 89.6204 44.9104 87.1645 47.3495C85.3399 47.1318 82.7156 46.8263 81.2711 46.5364C84.4704 43.6187 87.838 40.9065 91.1226 38.9978C94.3603 37.1168 96.1247 37.4102 96.7585 38.9184C97.1879 39.9371 97.9805 40.2835 98.8224 39.6328C99.6968 38.9581 100.292 37.7277 100.212 36.4577C100.03 33.5423 98.1825 31.8284 94.8534 32.0136V32.0136ZM97.4621 44.6061C100.479 43.336 102.105 45.8437 98.8777 46.6194C97.1831 47.0259 95.4668 47.4613 93.6952 47.5792C95.1517 46.3151 96.7188 44.9188 97.4621 44.6061V44.6061ZM164.004 33.7864C163.548 34.1448 161.584 36.1414 158.971 38.8583C155.518 39.3526 152.004 39.9203 148.445 40.5601C145.911 41.016 146.442 41.5103 146.964 43.2061C147.387 44.582 147.741 45.1389 149.186 44.7937C150.485 44.4834 151.824 44.1923 153.179 43.9109C148.714 46.5497 141.227 50.5126 134.606 54.3192C136.894 51.9504 139.259 49.656 141.696 47.4397C142.755 46.4871 142.438 46.1684 141.378 44.3704C140.227 42.4123 140.107 41.8302 138.628 42.9944C137.146 44.1587 129.736 51.9908 125.715 56.436C124.711 57.5473 125.08 58.447 126.456 59.8229C127.832 61.1988 128.149 61.6221 130.584 60.2462C132.96 58.9052 143.918 52.4237 150.304 47.9809C146.373 52.1519 142.725 56.0632 141.145 57.8131C140.139 58.922 140.403 59.2949 141.779 60.5637C143.209 61.8843 143.472 62.363 145.906 60.9871C148.011 59.7988 159.676 51.7141 166.735 46.6699C163.815 49.4146 160.195 53.0888 157.64 56.4372C156.726 57.6327 156.792 57.919 158.168 59.5078C159.544 61.0965 159.862 61.2012 161.133 59.9311C162.402 58.6598 169.705 52.2049 176.265 49.453C173.197 53.7924 171.398 55.9092 170.447 57.0722C169.493 58.2377 169.916 58.8463 171.715 60.2486C173.177 61.3876 173.33 61.2096 175.117 60.0766C177.762 58.3988 180.879 57.1925 183.975 55.9044C184.144 57.9791 185.128 60.3533 187.045 60.3533C189.33 60.3533 197.944 55.4582 206.244 49.6743C206.897 50.5114 207.647 51.1284 208.321 51.66C205.129 53.1033 202.237 54.555 200.262 55.6963C198.658 56.6224 198.463 56.5419 199.202 58.1294C199.944 59.717 199.619 59.8794 200.896 60.0345C211.638 61.3431 215.885 57.9178 215.885 54.5309C215.885 53.0407 215.016 52.0124 214.147 51.2679C216.077 50.3406 218.813 49.4206 221.194 48.5185C222.002 51.6853 225.965 51.9547 226.268 54.0811C226.527 55.8912 220.567 56.6477 218.237 56.2243C215.908 55.801 216.728 57.1312 218.131 58.3411C219.679 59.6773 220.029 60.4783 223.317 60.2462C227.975 59.9155 232.525 58.1294 232.525 55.1647C232.525 51.0382 227.695 49.3183 226.915 47.6514C226.286 46.3055 228.293 45.6272 230.831 46.0638C231.839 47.2797 231.6 47.2905 233.808 46.8973C234.579 46.7637 235.347 46.6117 236.11 46.4414C236.686 46.3019 236.627 46.3019 236.5 45.5875C236.42 45.1052 236.311 44.6281 236.175 44.1587C235.858 43.0474 235.803 42.8886 229.243 42.3594C225.102 42.025 221.47 43.9626 221.089 46.9261C218.585 47.7007 215.16 48.7507 212.391 49.8956C209.483 47.4914 209.643 45.9447 212.868 45.9447C215.407 45.9447 216.912 46.1696 217.511 46.2743C218.86 46.5124 219.337 46.0097 219.099 44.475C218.894 43.1664 218.911 43.1484 217.869 42.6889C216.875 42.2524 214.652 41.829 213.489 41.829C206.689 41.829 204.04 45.0763 205.386 48.2587C201.854 50.3683 193.728 54.3565 191.808 55.1647C190.002 55.9261 188.971 56.5888 189.391 53.8826C194.554 52.1435 202.921 49.3027 202.921 46.6988C202.921 43.4178 200.168 42.5711 197.206 42.5711C190.263 42.5711 185.458 48.8084 184.249 53.2212C182.933 53.6722 180.887 54.1448 179.335 54.6355C180.42 53.1538 181.785 50.2865 182.511 48.4969C183.251 46.6699 183.251 46.6447 182.191 45.5586C181.109 44.4485 181.055 44.475 179.969 44.6867C178.28 45.0174 174.889 46.5918 172.668 48.0735C174.147 46.5918 174.361 46.2742 174.997 45.5334C175.63 44.7925 175.208 44.2633 174.149 43.2049C172.934 41.989 172.901 41.5825 171.945 42.2006C168.335 44.2008 158.984 49.8547 149.927 55.0577C152.123 52.793 158.578 46.4559 162.93 42.2235C174.614 40.5854 187.775 40.0418 201.685 41.0881C204.043 41.2661 203.167 40.3473 202.002 38.8655C200.838 37.3838 200.518 36.8895 198.51 36.7487C189.597 36.1269 179.01 36.5034 167.495 37.7771C167.986 37.1228 167.631 36.6441 166.758 35.1599C165.603 33.2031 165.485 32.621 164.004 33.7864V33.7864ZM201.931 57.7602C203.881 56.5034 207.799 54.6452 210.082 53.3739C211.837 55.2838 209.002 57.0927 201.931 57.7602ZM198.68 45.2243C201.332 45.7547 197.762 47.8943 190.461 50.8987C192.525 47.7957 196.359 44.7612 198.68 45.2243Z" fill="#CF4044"/>
<path fill-rule="evenodd" clip-rule="evenodd" d="M150.393 35.5532C149.619 33.5796 149.542 33.5447 148.53 33.5447C135.511 33.5447 123.857 34.917 112.09 37.0362C109.984 37.415 110.304 37.8023 111.115 39.462C111.948 41.1627 112.586 41.2012 113.429 41.0701C114.87 40.8464 116.43 40.5661 118.089 40.2655C116.286 41.8627 114.529 43.5119 112.822 45.211C110.941 45.4708 109.069 45.7897 107.208 46.1672C105.398 46.5412 105.588 46.6747 106.206 48.4752C106.674 49.8367 106.977 50.319 107.737 50.1891L108.045 50.1386C104.226 54.229 100.605 58.4818 98.0515 61.9769C97.129 63.2386 96.9835 63.8868 97.8061 66.1792C98.7827 68.8998 99.1628 69.0236 100.32 67.5022C103.668 63.0954 110.065 55.6494 116.314 49.1163C120.337 48.8204 124.603 48.6015 130.077 48.8228C131.782 48.8925 131.742 48.2816 130.89 46.0373C130.153 44.0925 129.962 43.9349 128.904 43.9458C126.843 43.9638 124.088 44.0853 121.057 44.3222C123.341 42.1008 125.482 40.1656 127.302 38.7344C130.646 38.3531 135.433 37.9803 139.073 38.0116C139.906 39.5005 140.435 39.5053 141.811 39.3045C143.189 39.1048 146.843 38.7164 148.912 38.3086C151.127 37.8757 151.22 37.6616 150.393 35.5532V35.5532Z" fill="#CF4044"/>
<path fill-rule="evenodd" clip-rule="evenodd" d="M121.737 72.8388C121.462 73.2261 120.944 73.825 120.54 73.825C120.202 73.825 120.059 73.552 120.059 73.0709C120.059 72.3168 120.527 68.6004 120.683 68.159C120.462 68.2227 120.254 68.2769 120.032 68.3394V68.1325L121.541 67.4302C121.293 68.6377 120.838 72.1989 120.838 72.8099C120.838 73.0853 120.903 73.1743 121.02 73.1743C121.111 73.1743 121.293 73.0312 121.604 72.7065L121.737 72.8388ZM121.347 65.0656C121.502 65.0656 121.788 65.157 121.788 65.6622C121.788 66.0398 121.593 66.3008 121.281 66.3008C121.073 66.3008 120.813 66.195 120.813 65.7271C120.814 65.2087 121.086 65.0656 121.347 65.0656V65.0656ZM128.105 72.9939C127.741 73.3692 127.312 73.825 126.831 73.825C126.403 73.825 126.325 73.4089 126.325 72.9278C126.325 72.0702 126.897 69.0827 126.897 68.6665C126.897 68.509 126.833 68.4693 126.754 68.4693C125.961 68.4693 124.102 71.9151 123.829 73.6157L123.114 73.6951C123.335 71.8092 123.646 69.8356 123.841 68.1843C123.62 68.236 123.413 68.2877 123.191 68.3394V68.1325L124.776 67.4302C124.543 68.5342 124.321 70.1194 124.152 71.4593H124.178C124.646 70.0689 126.206 67.56 127.271 67.56C127.635 67.56 127.739 67.7549 127.739 68.1963C127.739 68.7808 127.103 72.0041 127.103 72.7726C127.103 73.0192 127.195 73.1743 127.35 73.1743C127.531 73.1743 127.753 72.9795 127.935 72.8099L128.105 72.9939V72.9939ZM129.64 67.7693H130.199L130.42 66.0518L131.213 65.7536L130.94 67.7693H132.045V68.159H130.888C130.525 70.7833 130.42 71.7972 130.42 72.5634C130.42 73.0565 130.537 73.1743 130.771 73.1743C131.044 73.1743 131.278 72.9278 131.734 72.4226L131.903 72.5778C131.474 73.214 131.046 73.825 130.421 73.825C130.032 73.825 129.642 73.4606 129.642 72.8905C129.642 72.1111 130.018 69.2234 130.15 68.159H129.642V67.7693H129.64V67.7693ZM136.24 72.2001C135.733 72.917 134.89 73.8262 133.955 73.8262C132.836 73.8262 132.654 72.84 132.654 71.9536C132.654 69.4194 134.46 67.4314 135.747 67.4314C136.318 67.4314 136.578 67.8848 136.578 68.4837C136.578 69.862 134.875 71.0588 133.536 71.3679C133.506 71.614 133.494 71.862 133.499 72.1099C133.499 72.8893 133.772 73.3054 134.253 73.3054C134.929 73.3054 135.656 72.5261 136.06 72.0438L136.24 72.2001V72.2001ZM135.265 68.082C134.966 68.082 134.745 68.1337 134.473 68.3923C133.966 68.8879 133.642 70.1615 133.576 71.0046C134.823 70.6546 135.799 69.642 135.799 68.6533C135.798 68.2769 135.577 68.082 135.265 68.082ZM137.644 68.1337L139.229 67.4314C139.049 68.3372 138.893 69.2476 138.761 70.1615H138.786C139.188 69.1861 139.957 67.4314 140.982 67.4314C141.138 67.4314 141.281 67.4566 141.476 67.4975L141.32 68.2769H141.034C140.137 68.2769 139.552 69.1861 139.018 70.4189C138.668 71.2247 138.41 72.8496 138.279 73.6157L137.564 73.6951C137.786 71.8092 138.097 69.8356 138.292 68.1843L137.641 68.3394V68.1337H137.644V68.1337ZM146.274 73.0456C145.988 73.3319 145.52 73.825 145.119 73.825C144.648 73.825 144.638 73.3836 144.638 72.9422C144.638 72.395 144.766 71.173 144.872 70.2902L144.844 70.265C144.391 71.6156 143.494 73.8262 142.364 73.8262C141.585 73.8262 141.337 73.0204 141.337 72.1376C141.337 69.7069 143.001 67.4326 144.716 67.4326C145.054 67.4326 145.289 67.5095 145.47 67.5613L145.977 67.3027C145.756 68.8337 145.418 71.6409 145.418 72.7859C145.418 73.0589 145.443 73.2417 145.599 73.2417C145.73 73.2417 146.015 72.9687 146.131 72.8917L146.274 73.0456V73.0456ZM142.648 73.0456C143.56 73.0456 145.12 68.8482 145.12 68.1855C145.12 68.0568 144.716 68.0159 144.455 68.0159C144.028 68.0159 143.637 68.0929 143.325 68.4428C142.637 69.2222 142.118 71.1213 142.118 72.1352C142.117 72.7594 142.257 73.0456 142.648 73.0456V73.0456ZM150.59 71.784C150.355 72.4744 149.42 73.825 148.445 73.825C147.471 73.825 147.107 72.6956 147.107 71.5254C147.107 69.5241 148.472 67.4314 150.094 67.4314C150.329 67.4314 150.498 67.4566 150.668 67.5083L150.459 68.2107C150.252 68.1855 150.017 68.1337 149.667 68.1446C149.056 68.1446 148.899 68.236 148.615 68.6774C148.263 69.2222 147.887 70.55 147.887 71.3667C147.887 72.1725 148.042 73.1094 148.627 73.1094C149.421 73.1094 150.109 72.1977 150.356 71.7046L150.59 71.784V71.784ZM152.044 67.7693H152.603L152.824 66.0518L153.618 65.7536L153.345 67.7693H154.449V68.159H153.291C152.929 70.7833 152.823 71.7972 152.823 72.5634C152.823 73.0565 152.941 73.1743 153.176 73.1743C153.449 73.1743 153.681 72.9278 154.137 72.4226L154.306 72.5778C153.879 73.214 153.449 73.825 152.824 73.825C152.435 73.825 152.045 73.4606 152.045 72.8905C152.045 72.1111 152.423 69.2234 152.553 68.159H152.045V67.7693H152.044V67.7693ZM157.139 72.8388C156.863 73.2261 156.345 73.825 155.943 73.825C155.605 73.825 155.462 73.552 155.462 73.0709C155.462 72.3168 155.93 68.6004 156.085 68.159C155.864 68.2227 155.658 68.2769 155.437 68.3394V68.1325L156.945 67.4302C156.696 68.6377 156.243 72.1989 156.243 72.8099C156.243 73.0853 156.306 73.1743 156.423 73.1743C156.514 73.1743 156.696 73.0312 157.007 72.7065L157.139 72.8388ZM156.749 65.0656C156.904 65.0656 157.19 65.157 157.19 65.6622C157.19 66.0398 156.995 66.3008 156.683 66.3008C156.473 66.3008 156.215 66.195 156.215 65.7271C156.216 65.2087 156.488 65.0656 156.749 65.0656V65.0656ZM157.983 68.1337L159.425 67.4314C159.425 69.2631 159.605 71.4857 159.841 72.8508C160.555 72.0053 161.765 69.8633 161.765 68.9251C161.765 68.5234 161.585 68.4056 161.063 68.1337L161.556 67.4314C162.012 67.5348 162.48 67.9124 162.48 68.444C162.48 69.6937 160.582 72.5525 159.816 73.6963L159.257 73.825C158.881 72.0955 158.581 68.8879 158.581 68.1855L157.984 68.3406V68.1337H157.983V68.1337ZM166.587 72.2001C166.08 72.917 165.234 73.8262 164.3 73.8262C163.181 73.8262 163.001 72.84 163.001 71.9536C163.001 69.4194 164.807 67.4314 166.092 67.4314C166.665 67.4314 166.923 67.8848 166.923 68.4837C166.923 69.862 165.222 71.0588 163.883 71.3679C163.852 71.6139 163.839 71.8619 163.844 72.1099C163.844 72.8893 164.117 73.3054 164.598 73.3054C165.274 73.3054 166.003 72.5261 166.404 72.0438L166.587 72.2001V72.2001ZM165.612 68.082C165.311 68.082 165.09 68.1337 164.818 68.3923C164.31 68.8879 163.987 70.1615 163.921 71.0046C165.168 70.6546 166.143 69.642 166.143 68.6533C166.143 68.2769 165.922 68.082 165.612 68.082V68.082ZM170.876 67.7693C171.396 67.7693 171.616 67.5997 171.707 66.7422C171.877 64.8563 172.877 64.2189 173.8 64.2189H174.073C174.051 64.4603 174.011 64.6999 173.955 64.9357C173.775 64.9081 173.565 64.8696 173.332 64.8696C172.799 64.8696 172.681 65.1426 172.553 66.0915L172.343 67.637H173.579V68.159H172.268L171.669 72.6295C171.344 75.0867 171.006 75.5545 169.733 75.9959L169.682 75.7493C170.396 75.4366 170.709 74.6573 170.863 73.1888C171.046 71.5002 171.319 69.8079 171.528 68.159H170.877V67.7693H170.876V67.7693ZM175.553 72.8388C175.28 73.2261 174.762 73.825 174.358 73.825C174.022 73.825 173.879 73.552 173.879 73.0709C173.879 72.3168 174.347 68.6004 174.502 68.159C174.281 68.2227 174.075 68.2769 173.854 68.3394V68.1325L175.36 67.4302C175.113 68.6377 174.66 72.1989 174.66 72.8099C174.66 73.0853 174.724 73.1743 174.84 73.1743C174.932 73.1743 175.113 73.0312 175.425 72.7065L175.553 72.8388V72.8388ZM175.164 65.0656C175.321 65.0656 175.605 65.157 175.605 65.6622C175.605 66.0398 175.41 66.3008 175.1 66.3008C174.891 66.3008 174.632 66.195 174.632 65.7271C174.632 65.2087 174.905 65.0656 175.164 65.0656ZM176.958 67.7693H177.517L177.739 66.0518L178.53 65.7536L178.257 67.7693H179.361V68.159H178.205C177.841 70.7833 177.738 71.7972 177.738 72.5634C177.738 73.0565 177.853 73.1743 178.087 73.1743C178.361 73.1743 178.595 72.9278 179.051 72.4226L179.218 72.5778C178.791 73.214 178.361 73.825 177.739 73.825C177.349 73.825 176.959 73.4606 176.959 72.8905C176.959 72.1111 177.335 69.2234 177.467 68.159H176.958V67.7693V67.7693ZM185.535 72.9939C185.17 73.3692 184.741 73.825 184.261 73.825C183.832 73.825 183.753 73.4089 183.753 72.9278C183.753 72.0702 184.325 69.0827 184.325 68.6665C184.325 68.509 184.261 68.4693 184.182 68.4693C183.39 68.4693 181.532 71.9151 181.257 73.6157L180.542 73.6951C180.764 71.8092 181.075 69.8356 181.27 68.1843L180.619 68.3394V68.1325L182.204 67.4302C181.972 68.5342 181.751 70.1194 181.581 71.4593H181.607C182.075 70.0689 183.634 67.56 184.7 67.56C185.064 67.56 185.168 67.7549 185.168 68.1963C185.168 68.7808 184.532 72.0041 184.532 72.7726C184.532 73.0192 184.621 73.1743 184.778 73.1743C184.959 73.1743 185.18 72.9795 185.363 72.8099L185.535 72.9939V72.9939ZM190.059 72.2001C189.552 72.917 188.706 73.8262 187.772 73.8262C186.653 73.8262 186.473 72.84 186.473 71.9536C186.473 69.4194 188.279 67.4314 189.564 67.4314C190.138 67.4314 190.397 67.8848 190.397 68.4837C190.397 69.862 188.694 71.0588 187.356 71.3679C187.324 71.6139 187.311 71.8619 187.316 72.1099C187.316 72.8893 187.589 73.3054 188.07 73.3054C188.746 73.3054 189.475 72.5261 189.877 72.0438L190.059 72.2001V72.2001ZM189.084 68.082C188.783 68.082 188.562 68.1337 188.29 68.3923C187.783 68.8879 187.459 70.1615 187.393 71.0046C188.643 70.6546 189.618 69.642 189.618 68.6533C189.617 68.2769 189.397 68.082 189.084 68.082ZM194.297 68.3406C193.932 68.2227 193.554 68.082 193.035 68.082C192.399 68.082 191.707 68.2516 191.707 68.9251C191.707 69.8079 194.138 70.6799 194.138 71.8357C194.138 73.0312 193.008 73.825 191.942 73.825C191.552 73.825 191.059 73.748 190.706 73.5123L190.838 72.7726C191.15 72.9422 191.565 73.1743 192.203 73.1743C192.994 73.1743 193.553 72.8099 193.553 72.2254C193.553 71.1983 191.124 70.4333 191.124 69.3028C191.124 68.1073 192.319 67.4302 193.254 67.4302C193.604 67.4302 194.111 67.5071 194.294 67.637V68.3406H194.297V68.3406ZM198.621 68.3406C198.257 68.2227 197.882 68.082 197.36 68.082C196.724 68.082 196.034 68.2516 196.034 68.9251C196.034 69.8079 198.465 70.6799 198.465 71.8357C198.465 73.0312 197.333 73.825 196.267 73.825C195.879 73.825 195.384 73.748 195.034 73.5123L195.162 72.7726C195.475 72.9422 195.89 73.1743 196.528 73.1743C197.321 73.1743 197.881 72.8099 197.881 72.2254C197.881 71.1983 195.45 70.4333 195.45 69.3028C195.45 68.1073 196.645 67.4302 197.58 67.4302C197.932 67.4302 198.437 67.5071 198.62 67.637V68.3406H198.621V68.3406ZM206.197 68.3406C205.833 68.2227 205.458 68.082 204.936 68.082C204.3 68.082 203.61 68.2516 203.61 68.9251C203.61 69.8079 206.04 70.6799 206.04 71.8357C206.04 73.0312 204.911 73.825 203.844 73.825C203.454 73.825 202.961 73.748 202.611 73.5123L202.74 72.7726C203.052 72.9422 203.467 73.1743 204.105 73.1743C204.898 73.1743 205.458 72.8099 205.458 72.2254C205.458 71.1983 203.027 70.4333 203.027 69.3028C203.027 68.1073 204.223 67.4302 205.157 67.4302C205.509 67.4302 206.015 67.5071 206.197 67.637V68.3406V68.3406ZM209.899 67.4314C211.003 67.4314 211.316 68.5607 211.316 69.5361C211.316 71.357 210.261 73.825 208.418 73.825C207.403 73.825 207.039 72.7582 207.039 71.9007C207.038 70.4706 208.027 67.4314 209.899 67.4314V67.4314ZM208.793 73.3066C209.094 73.3066 209.352 73.2008 209.572 72.9807C210.248 72.306 210.536 69.9523 210.536 69.4339C210.536 68.4068 210.106 68.0171 209.56 68.0171C208.976 68.0171 208.858 68.1975 208.468 68.9781C208.143 69.6287 207.817 70.9277 207.817 71.7479C207.805 72.5898 208.093 73.3066 208.793 73.3066V73.3066ZM214.329 72.8508C213.809 73.4762 213.354 73.8262 213.042 73.8262C212.758 73.8262 212.574 73.6458 212.574 72.9807C212.574 72.6307 212.589 72.1496 212.666 71.5639L213.497 64.8575C213.285 64.9371 213.068 64.9982 212.846 65.0404V64.8311C213.29 64.6615 213.938 64.3777 214.369 64.1311L213.445 71.096C213.393 71.5519 213.302 72.4238 213.302 72.7738C213.302 73.1118 213.379 73.1755 213.471 73.1755C213.589 73.1755 213.681 73.0986 214.134 72.6969L214.329 72.8508V72.8508ZM220.631 72.9025C220.215 73.3584 219.877 73.8262 219.409 73.8262C219.045 73.8262 218.813 73.5279 218.813 72.84C218.813 72.3589 218.916 71.3691 219.034 70.6041L219.009 70.5789C218.1 72.8268 217.372 73.8274 216.396 73.8274C216.007 73.8274 215.68 73.5147 215.68 72.9182C215.68 71.6709 216.279 68.5511 216.279 68.1867L215.628 68.3418V68.135L217.213 67.4326C216.915 68.7062 216.459 72.1123 216.459 72.6054C216.459 72.9182 216.565 73.0469 216.745 73.0469C217.812 73.0469 219.085 69.7466 219.449 67.797L220.203 67.5625C219.956 69.031 219.592 71.6312 219.592 72.8003C219.592 73.125 219.629 73.2417 219.747 73.2417C219.942 73.2417 220.215 72.917 220.41 72.7221L220.631 72.9025V72.9025ZM222.077 67.7693H222.636L222.857 66.0518L223.649 65.7536L223.376 67.7693H224.482V68.159H223.324C222.96 70.7833 222.856 71.7972 222.856 72.5634C222.856 73.0565 222.974 73.1743 223.206 73.1743C223.482 73.1743 223.714 72.9278 224.17 72.4226L224.339 72.5778C223.91 73.214 223.482 73.825 222.857 73.825C222.468 73.825 222.078 73.4606 222.078 72.8905C222.078 72.1111 222.453 69.2234 222.586 68.159H222.078V67.7693H222.077V67.7693ZM227.169 72.8388C226.896 73.2261 226.378 73.825 225.974 73.825C225.636 73.825 225.493 73.552 225.493 73.0709C225.493 72.3168 225.963 68.6004 226.118 68.159C225.897 68.2227 225.689 68.2769 225.467 68.3394V68.1325L226.976 67.4302C226.729 68.6377 226.273 72.1989 226.273 72.8099C226.273 73.0853 226.339 73.1743 226.456 73.1743C226.547 73.1743 226.729 73.0312 227.041 72.7065L227.169 72.8388V72.8388ZM226.78 65.0656C226.937 65.0656 227.221 65.157 227.221 65.6622C227.221 66.0398 227.026 66.3008 226.713 66.3008C226.507 66.3008 226.246 66.195 226.246 65.7271C226.246 65.2087 226.519 65.0656 226.78 65.0656V65.0656ZM230.834 67.4314C231.94 67.4314 232.251 68.5607 232.251 69.5361C232.251 71.357 231.198 73.825 229.355 73.825C228.339 73.825 227.976 72.7582 227.976 71.9007C227.975 70.4706 228.964 67.4314 230.834 67.4314V67.4314ZM229.73 73.3066C229.875 73.3084 230.019 73.2805 230.153 73.2244C230.287 73.1683 230.408 73.0854 230.509 72.9807C231.185 72.306 231.47 69.9523 231.47 69.4339C231.47 68.4068 231.043 68.0171 230.495 68.0171C229.91 68.0171 229.795 68.1975 229.405 68.9781C229.079 69.6287 228.754 70.9277 228.754 71.7479C228.741 72.5898 229.027 73.3066 229.73 73.3066V73.3066ZM238.593 72.9939C238.228 73.3692 237.801 73.825 237.319 73.825C236.89 73.825 236.811 73.4089 236.811 72.9278C236.811 72.0702 237.385 69.0827 237.385 68.6665C237.385 68.509 237.319 68.4693 237.242 68.4693C236.448 68.4693 234.59 71.9151 234.317 73.6157L233.603 73.6951C233.824 71.8092 234.133 69.8356 234.329 68.1843C234.108 68.236 233.902 68.2877 233.681 68.3394V68.1325L235.266 67.4302C235.031 68.5342 234.81 70.1194 234.64 71.4593H234.666C235.134 70.0689 236.694 67.56 237.759 67.56C238.124 67.56 238.227 67.7549 238.227 68.1963C238.227 68.7808 237.591 72.0041 237.591 72.7726C237.591 73.0192 237.682 73.1743 237.837 73.1743C238.02 73.1743 238.241 72.9795 238.422 72.8099L238.593 72.9939V72.9939ZM243.014 68.3406C242.649 68.2227 242.272 68.082 241.752 68.082C241.116 68.082 240.427 68.2516 240.427 68.9251C240.427 69.8079 242.856 70.6799 242.856 71.8357C242.856 73.0312 241.727 73.825 240.66 73.825C240.27 73.825 239.777 73.748 239.427 73.5123L239.556 72.7726C239.869 72.9422 240.284 73.1743 240.921 73.1743C241.715 73.1743 242.272 72.8099 242.272 72.2254C242.272 71.1983 239.842 70.4333 239.842 69.3028C239.842 68.1073 241.038 67.4302 241.972 67.4302C242.322 67.4302 242.83 67.5071 243.013 67.637V68.3406H243.014V68.3406Z" fill="black"/>
</svg>
