<svg width="261" height="108" viewBox="0 0 261 108" fill="none" xmlns="http://www.w3.org/2000/svg">
<rect width="261" height="108" rx="10" fill="white"/>
<path d="M107.086 37.1744C76.8372 36.36 54.0344 40.8101 53.0164 48.285C52.4929 52.1242 66.1048 58.6975 74.365 60.1808C67.0064 61.6351 57.1465 62.4204 44.8144 62.3913L44 63.0021C77.1862 64.7472 100.193 61.8969 101.182 53.8693C101.821 48.6631 84.3121 42.6715 84.3121 42.6715L83.585 42.846C83.585 42.846 90.2164 45.9872 90.2164 50.0883C90.2164 54.451 85.2719 57.8249 75.5866 59.9191C69.1296 57.5922 65.3486 54.7419 65.4067 51.6589C65.5231 44.4748 80.4147 38.8614 106.65 38.1051L107.086 37.1744Z" fill="black"/>
<path d="M114.008 58.1449C114.91 58.1449 115.87 57.4178 116.16 56.5161L116.742 54.7419H122.792L120.145 62.8276H101.24L109.674 37.0581H128.58L126.34 43.8931H120.291L120.378 43.6314C120.669 42.7297 120.174 42.0026 119.302 42.0026H116.509H116.48C115.579 42.0026 114.648 42.7588 114.357 43.6314L110.14 56.5452C109.849 57.3887 110.343 58.174 111.245 58.174H114.008V58.1449Z" fill="black"/>
<path d="M129.132 37.1165H135.909L137.334 45.493L143.471 37.1165H150.539L138.643 53.2878L135.618 62.8569H129.016L131.896 53.2878L129.132 37.1165Z" fill="black"/>
<path d="M185.267 57.9704H175.174C175.174 57.9704 173.197 57.8832 173.778 56.0508L175 52.3279H185.82L187.39 47.5288H176.541C176.541 47.5288 177.181 45.6092 177.85 43.5733C178.49 41.5955 180.439 41.7991 180.439 41.7991H189.252L190.822 37H173.226L164.791 62.7695H183.696L185.267 57.9704ZM198.181 54.8583C198.006 54.8583 197.919 55.0619 197.715 55.3528L192.684 62.7986H184.802L193.702 49.8266L192.742 37.0291H199.664L200.159 44.0095C200.159 44.1259 200.159 44.3295 200.246 44.3295C200.304 44.3295 200.333 44.2131 200.449 44.0968L205.423 37.0291H213.421L204.638 48.9831L205.888 62.7986H199.053L198.326 55.4109C198.326 55.0328 198.297 54.8583 198.181 54.8583ZM156.094 57.9414C156.967 57.9414 158.363 57.3015 158.77 56.3708L159.236 55.0037C159.788 53.2877 160.428 52.0661 157.927 52.0661H153.39L151.441 57.9704L156.094 57.9414ZM165.373 37.0291C168.805 37.0291 169.939 39.4432 169.037 42.2063L167.583 46.4236C166.682 48.8668 163.977 49.4485 163.977 49.4485C167.234 50.0302 166.013 53.055 166.013 53.055C165.664 54.3057 165.46 55.0037 165.053 56.2253C164.5 57.9414 164.064 59.3374 163.54 60.5881C163.046 61.7806 161.388 62.7695 159.178 62.7695H142.977L151.412 37L165.373 37.0291ZM160.05 41.8281H156.734L154.902 47.4416H158.101C160.515 47.5288 161.563 46.5109 162.115 44.7948L162.61 43.3987C162.9 42.5262 162.58 41.8281 161.912 41.8281H160.05Z" fill="black"/>
<path d="M216.359 38.9487C216.679 38.9487 216.941 38.9196 217.057 38.5706C217.144 38.2797 216.912 38.2215 216.65 38.2215H216.155L215.923 38.9778H216.359V38.9487ZM215.486 40.3157H215.137L215.923 37.9016H216.824C217.377 37.9016 217.61 38.1052 217.435 38.5706C217.29 39.0069 216.97 39.1814 216.592 39.2395L216.941 40.2866H216.534L216.243 39.2395H215.835L215.486 40.3157ZM215.748 40.8392C216.679 40.8392 217.668 40.1121 218.017 39.0941C218.337 38.1052 217.842 37.3781 216.912 37.3781C215.952 37.3781 214.963 38.1343 214.643 39.0941C214.294 40.1121 214.817 40.8392 215.748 40.8392ZM214.207 39.0941C214.585 37.9016 215.865 37.0291 216.999 37.0291C218.133 37.0291 218.802 37.9016 218.424 39.0941C218.017 40.3157 216.766 41.1882 215.632 41.1882C214.498 41.1882 213.829 40.3157 214.207 39.0941Z" fill="black"/>
</svg>
