<svg width="261" height="108" viewBox="0 0 261 108" fill="none" xmlns="http://www.w3.org/2000/svg">
<rect width="261" height="108" rx="10" fill="white"/>
<path d="M64.792 40.826C65.1422 38.9938 66.7858 37.4311 68.6449 37.0808C68.8874 37.0269 68.7257 37 68.6449 37H64.4956C62.367 37 60.2924 38.7244 59.8882 40.799L55.739 62.246H56.7628C58.8913 62.246 60.966 60.5486 61.3701 58.447L64.792 40.826Z" fill="#03AFCC"/>
<path d="M93.7831 37H80.8503C78.7217 37 76.6471 38.7244 76.2429 40.799L72.0936 62.246H74.761C76.8896 62.246 78.9642 60.5486 79.3684 58.447L82.4669 42.4426C82.5746 41.9306 83.0866 41.4996 83.6254 41.4996H89.7146C90.2535 41.4996 90.6038 41.9306 90.496 42.4426L89.4722 47.6696C89.3644 48.1815 88.8525 48.6126 88.3136 48.6126H82.2244L82.0896 49.2593C81.6855 51.3609 83.0866 53.0583 85.242 53.0583H90.6577C92.7862 53.0583 94.8608 51.3339 95.265 49.2593L96.9085 40.799C97.3396 38.7244 95.9386 37 93.7831 37Z" fill="#424242"/>
<path d="M155.591 61.5722C155.996 59.4707 154.594 57.7732 152.439 57.7732H146.727C146.188 57.7732 145.838 57.3421 145.946 56.8302L148.721 42.4693C148.829 41.9574 149.341 41.5263 149.879 41.5263H155.591C157.72 41.5263 159.795 39.8019 160.199 37.7273L160.333 37.0537H147.104C144.976 37.0537 142.901 38.7781 142.497 40.8527L139.102 58.5007C138.698 60.6023 140.099 62.2997 142.254 62.2997H155.457L155.591 61.5722Z" fill="#424242"/>
<path d="M164.725 56.8304L167.5 42.4426C167.608 41.9306 168.12 41.4996 168.659 41.4996H174.748C175.287 41.4996 175.637 41.9306 175.53 42.4426L172.754 56.8304C172.647 57.3423 172.135 57.7734 171.596 57.7734H165.507C164.995 57.7734 164.644 57.3423 164.725 56.8304ZM179.248 37H165.911C163.782 37 161.708 38.7244 161.303 40.799L157.908 58.447C157.504 60.5486 158.932 62.246 161.061 62.246H174.398C176.526 62.246 178.601 60.5216 179.005 58.447L182.427 40.799C182.804 38.7244 181.376 37 179.248 37Z" fill="#424242"/>
<path d="M118.463 49.2593L120.107 40.799C120.511 38.6974 119.11 37 116.954 37H104.022C101.893 37 99.8185 38.7244 99.4143 40.799L95.265 62.246H101.812L105.638 42.4156C105.746 41.8768 106.258 41.4726 106.797 41.4726H112.886C113.425 41.4726 113.775 41.9037 113.667 42.4156L112.644 47.6427C112.536 48.1546 112.024 48.5857 111.485 48.5857H105.396L105.261 49.2323C105.18 49.6634 105.099 50.5526 105.477 51.2531L111.701 62.2191H118.679L113.479 53.0314H113.829C115.985 53.0852 118.059 51.3609 118.463 49.2593Z" fill="#424242"/>
<path d="M203.928 49.2593L205.571 40.799C205.976 38.6974 204.548 37 202.419 37H189.486C187.358 37 185.283 38.7244 184.879 40.799L180.73 62.246H187.277L191.103 42.4156C191.211 41.8768 191.723 41.4726 192.261 41.4726H198.351C198.89 41.4726 199.24 41.9037 199.132 42.4156L198.108 47.6427C198 48.1546 197.488 48.5857 196.95 48.5857H190.887L190.753 49.2323C190.672 49.6634 190.591 50.5526 190.968 51.2531L197.192 62.2191H204.17L198.97 53.0852H199.321C201.449 53.0852 203.524 51.3609 203.928 49.2593Z" fill="#424242"/>
<path d="M73.7911 40.826C74.1413 38.9938 75.7849 37.458 77.617 37.0808C77.8865 37.0269 77.7248 37 77.644 37H71.8781C69.7495 37 67.6749 38.7244 67.2707 40.799L63.1215 62.246H65.7619C67.8904 62.246 69.9651 60.5486 70.3692 58.447L73.7911 40.826Z" fill="#026496"/>
<path d="M54.1493 40.826L50 62.2191C51.913 61.9227 53.6374 60.36 53.9876 58.4739L57.4094 40.826C57.7597 38.9938 59.4033 37.4311 61.2624 37.0808C61.5049 37.0269 61.3162 37 61.2624 37H58.7836C56.6281 37 54.5534 38.7244 54.1493 40.826Z" fill="#8ED7F4"/>
<path d="M127.651 37C125.522 37 123.448 38.7244 123.044 40.799L119.649 58.447C119.245 60.5486 120.673 62.246 122.801 62.246H136.677L136.812 61.5724C137.216 59.4708 135.815 57.7734 133.659 57.7734H127.274C126.735 57.7734 126.385 57.3423 126.492 56.8304L127.462 51.8189H136.381L137.243 47.4002H128.325L129.295 42.4695C129.402 41.9576 129.914 41.5265 130.453 41.5265H136.839C138.967 41.5265 141.042 39.8021 141.446 37.7275L141.581 37.0539H127.651V37Z" fill="#424242"/>
<path d="M209.371 37.0269C210.637 37.0269 211.661 38.0507 211.661 39.317C211.661 40.5834 210.637 41.6072 209.371 41.6072C208.104 41.6072 207.08 40.5834 207.08 39.317C207.08 38.0507 208.104 37.0269 209.371 37.0269ZM209.371 41.0684C210.34 41.0684 211.095 40.287 211.095 39.344C211.095 38.374 210.314 37.6196 209.371 37.6196C208.401 37.6196 207.646 38.401 207.646 39.344C207.646 40.287 208.401 41.0684 209.371 41.0684ZM209.02 40.314C209.02 40.4756 208.966 40.6103 208.751 40.6103C208.535 40.6103 208.481 40.5026 208.481 40.314V38.401C208.481 38.2663 208.535 38.1315 208.778 38.1315H209.478C209.99 38.1315 210.394 38.2932 210.394 38.859C210.394 39.2901 210.179 39.5326 209.775 39.5326L210.206 40.2601C210.233 40.314 210.233 40.3678 210.233 40.3948C210.233 40.5295 210.152 40.6103 209.936 40.6103C209.748 40.6103 209.667 40.4487 209.586 40.314L209.182 39.5865H208.993V40.314H209.02ZM209.478 39.1284C209.694 39.1284 209.802 39.0746 209.802 38.859C209.802 38.6435 209.694 38.5896 209.478 38.5896H209.02V39.1554H209.478V39.1284Z" fill="#424242"/>
</svg>
