<svg width="261" height="108" viewBox="0 0 261 108" fill="none" xmlns="http://www.w3.org/2000/svg">
<rect width="261" height="108" rx="10" fill="white"/>
<path fill-rule="evenodd" clip-rule="evenodd" d="M155.919 42C155.919 42 155.888 50.2842 155.949 55.8578C155.949 61.736 160.03 65.9999 174.162 65.9999C189.055 65.9999 191.34 60 191.34 56.7715C191.34 53.5431 191.37 42.0305 191.37 42.0305H184.822C184.822 42.0305 184.852 51.4416 184.852 55.6751C184.852 59.9086 182.264 63.5939 175.045 63.5939C167.035 63.5939 165.36 59.4822 165.36 55.6751C165.36 51.8985 165.421 42.0305 165.421 42.0305H155.919V42Z" fill="black"/>
<path fill-rule="evenodd" clip-rule="evenodd" d="M193.502 42V65.5735H218.446V62.3756L203.492 62.5888V54.3959L218.111 54.6091L218.081 51.533L203.492 51.7157V44.8325L218.446 45.0152V42H193.502Z" fill="black"/>
<path fill-rule="evenodd" clip-rule="evenodd" d="M121.716 45.3807L110.203 44.9848L110.172 65.5735H100.304L100.152 44.9848L88.335 45.3807L88.3654 42H121.746L121.716 45.3807Z" fill="black"/>
<path fill-rule="evenodd" clip-rule="evenodd" d="M40 42.0305V65.6041H43.9594C43.9594 65.6041 52.8832 45.3808 68.4771 45.3808C68.4771 45.3808 75.939 44.7716 83.1268 55.3706V42.0305H40Z" fill="#1AA2DC"/>
<path fill-rule="evenodd" clip-rule="evenodd" d="M58.67 65.6041H82.9136C82.9136 65.6041 79.0152 53.4518 70.6091 53.4518C70.6091 53.4518 63.4213 53.1168 58.67 65.6041Z" fill="#1AA2DC"/>
<path fill-rule="evenodd" clip-rule="evenodd" d="M219.969 43.5229C219.969 42.7919 220.517 42.2742 221.218 42.2742C221.918 42.2742 222.436 42.8224 222.436 43.5229C222.436 44.2539 221.888 44.8021 221.218 44.8021C220.517 44.7716 219.969 44.2539 219.969 43.5229ZM221.218 45.0457C222.04 45.0457 222.741 44.4061 222.741 43.5229C222.741 42.6701 222.04 42.0305 221.218 42.0305C220.396 42.0305 219.695 42.6701 219.695 43.5229C219.695 44.4061 220.396 45.0457 221.218 45.0457ZM220.913 43.6447H221.218L221.675 44.4061H221.979L221.492 43.6447C221.736 43.6143 221.949 43.462 221.949 43.1574C221.949 42.8224 221.736 42.6701 221.34 42.6701H220.67V44.4061H220.944V43.6447H220.913ZM220.913 43.4011V42.8528H221.279C221.462 42.8528 221.675 42.8833 221.675 43.127C221.675 43.4011 221.462 43.4011 221.248 43.4011H220.913Z" fill="black"/>
<path fill-rule="evenodd" clip-rule="evenodd" d="M144.68 54.5178C144.68 54.5178 144.528 54.396 144.71 54.3655C149.248 53.6346 153.451 51.9899 153.817 48.5178C154.122 43.8579 148.913 42.2133 142.913 42.061C141.573 42.0305 135.817 42.0305 133.502 42.0305H123.573V65.6041H133.502V54.8833C133.624 54.8833 133.807 54.8833 133.959 54.8833C134.264 54.8833 134.386 55.0356 134.386 55.0356L146.355 65.6041H159.269L144.68 54.5178ZM133.533 53.0559V44.0711C133.533 44.0711 135.726 44.0102 138.101 44.132C141.573 44.4366 143.583 45.5026 143.583 48.3655C143.583 53.7259 133.533 53.0559 133.533 53.0559Z" fill="black"/>
</svg>
