<svg width="261" height="108" viewBox="0 0 261 108" fill="none" xmlns="http://www.w3.org/2000/svg">
<rect width="261" height="108" rx="10" fill="white"/>
<path d="M186.524 57.8935H173.055L174.455 56.8406C175.061 56.0453 175.571 55.1819 175.975 54.268L179.621 46.4409C179.869 45.9145 179.919 45.547 179.77 45.3682C179.621 45.1894 179.164 45.1 178.389 45.1H174.356C173.843 45.0778 173.33 45.1554 172.846 45.3284C172.414 45.5781 172.084 45.972 171.913 46.4409L168.267 54.268C167.919 54.9356 167.652 55.6426 167.473 56.3738C167.445 56.9004 167.559 57.4249 167.8 57.8935H154.361L155.355 57.3472C156.162 56.4453 156.802 55.4058 157.242 54.2779L161.215 45.6662C161.545 45.0363 161.798 44.3694 161.97 43.6796C162.001 43.1174 161.899 42.5558 161.672 42.0407H173.055L172.608 43.6995C173.109 43.2525 173.651 42.8535 174.227 42.5075C174.904 42.1909 175.645 42.0313 176.392 42.0407H185.332C190.206 42.0407 191.742 43.9743 189.941 47.8415L186.961 54.3077C186.623 54.9686 186.36 55.6649 186.176 56.3837C186.138 56.9199 186.259 57.4555 186.524 57.9233" fill="#CF4044"/>
<path d="M187.408 58.4496H171.386L173.055 57.1981L174.048 56.4432C174.608 55.6981 175.081 54.8916 175.459 54.0395L179.104 46.2024C179.182 46.0521 179.239 45.8916 179.273 45.7257C178.978 45.6688 178.679 45.6455 178.379 45.6561H174.346C173.912 45.6341 173.477 45.6947 173.065 45.8349C172.936 45.8945 172.687 46.0733 172.409 46.6792L168.764 54.5063C168.434 55.1358 168.18 55.8028 168.009 56.4929C167.994 56.9154 168.093 57.3341 168.297 57.7047L168.655 58.4894H154.351L154.093 57.4961L154.47 57.2974L155.066 56.9796C155.79 56.1289 156.371 55.1661 156.785 54.1289L160.758 45.5171C161.075 44.9312 161.315 44.3069 161.473 43.6596C161.492 43.1912 161.4 42.725 161.205 42.2988L160.927 41.5439H173.84L173.631 42.3187L174.018 42.0803C174.777 41.7164 175.61 41.5329 176.452 41.5439H185.391C188.222 41.5439 189.99 42.1697 190.805 43.451C191.619 44.7324 191.421 46.1528 190.497 48.1393L187.517 54.6056C187.195 55.2194 186.948 55.8697 186.782 56.5425C186.767 56.9644 186.874 57.3817 187.09 57.7444L187.408 58.4496ZM174.714 57.3372H185.719C185.613 56.9934 185.583 56.6309 185.63 56.2743C185.813 55.5018 186.09 54.7546 186.454 54.0494L189.434 47.5732C190.189 45.964 190.318 44.7522 189.812 43.9576C189.305 43.163 187.716 42.567 185.332 42.567H176.392C175.729 42.5536 175.073 42.6965 174.475 42.9842C173.937 43.3056 173.432 43.6781 172.965 44.0967L171.595 45.2787L172.33 42.567H162.397C162.501 42.9484 162.532 43.3463 162.486 43.7391C162.313 44.4913 162.046 45.2188 161.692 45.9045L157.719 54.5162C157.286 55.516 156.739 56.4626 156.09 57.3372H167.016C166.91 57.0002 166.88 56.6442 166.926 56.2942C167.105 55.5094 167.385 54.7513 167.761 54.0395L171.416 46.2024C171.636 45.6088 172.068 45.1172 172.628 44.8218C173.179 44.6124 173.767 44.5177 174.356 44.5436H178.389C179.382 44.5436 179.928 44.6827 180.197 45.0105C180.604 45.5071 180.346 46.2024 180.117 46.6792L176.472 54.5063C176.052 55.4609 175.518 56.3614 174.882 57.1882L174.793 57.2776L174.714 57.3372Z" fill="#231F20"/>
<path d="M203.072 48.5864L204.065 46.421C204.237 45.9687 204.56 45.5896 204.979 45.3482C205.393 45.17 205.84 45.0852 206.29 45.0999H210.82C211.892 45.0999 212.23 45.537 211.813 46.421L210.82 48.5864H203.072ZM222.372 46.8084C223.206 45.0105 223.305 43.7689 222.68 43.0637C222.054 42.3585 220.574 42.0108 218.259 42.0108H201.463C199.59 41.902 197.721 42.2712 196.03 43.0836C194.637 43.9752 193.554 45.2765 192.931 46.8084L189.951 53.1058C189.116 54.8937 189.007 56.1453 189.623 56.8406C190.239 57.5359 191.699 57.8934 194.013 57.8934H216.084L218.647 54.0991C217.888 54.3855 217.103 54.5952 216.303 54.7249C215.756 54.7845 214.783 54.8043 213.323 54.8043H202.675C200.986 54.8043 200.38 54.268 200.887 53.2051L201.572 51.7252H220.037L222.372 46.8084Z" fill="#CF4044"/>
<path d="M216.382 58.4496H194.053C191.55 58.4496 189.981 58.0424 189.245 57.208C188.51 56.3736 188.54 54.8936 189.494 52.8673L192.474 46.5699C193.145 44.9329 194.307 43.5446 195.801 42.5968C197.576 41.7349 199.542 41.3416 201.513 41.4545H218.309C220.812 41.4545 222.391 41.8617 223.146 42.6862C223.901 43.5106 223.871 45.0105 222.928 47.0368L220.484 52.2813H201.969L201.423 53.4335C201.326 53.587 201.294 53.7728 201.334 53.95C201.334 53.95 201.562 54.248 202.714 54.248H213.362C214.753 54.248 215.726 54.248 216.243 54.1685C217.003 54.0476 217.749 53.8479 218.468 53.5726L220.027 53.0461L216.382 58.4496ZM201.483 42.557C199.709 42.4544 197.937 42.7958 196.328 43.5503C195.035 44.3853 194.032 45.5996 193.457 47.0268L190.477 53.3243C189.762 54.8738 189.613 55.9565 190.06 56.463C190.507 56.9696 191.371 57.3272 194.033 57.3272H215.776L217.286 55.0824C216.975 55.1609 216.66 55.2206 216.342 55.2612C215.776 55.3208 214.793 55.3506 213.362 55.3506H202.675C201.463 55.3506 200.688 55.0824 200.36 54.5361C200.221 54.2963 200.147 54.0238 200.147 53.7464C200.147 53.469 200.221 53.1965 200.36 52.9567L201.195 51.1589H219.66L221.805 46.56C222.521 45.0204 222.66 43.9377 222.203 43.4212C221.746 42.9047 220.872 42.557 218.23 42.557H201.483ZM211.207 49.1326H202.267L203.648 46.1527C203.869 45.5846 204.285 45.1131 204.82 44.8217C205.313 44.6016 205.85 44.4963 206.39 44.5138H210.909C211.199 44.4736 211.494 44.5092 211.765 44.6171C212.037 44.7251 212.276 44.9017 212.459 45.1296C212.588 45.3565 212.657 45.6133 212.657 45.8746C212.657 46.136 212.588 46.3928 212.459 46.6196L211.207 49.1326ZM203.946 48.04H210.482L211.346 46.1925C211.424 46.0639 211.462 45.9154 211.455 45.7654C211.263 45.6757 211.05 45.6413 210.84 45.666H206.32C205.949 45.6483 205.578 45.7163 205.237 45.8647C204.936 46.0463 204.708 46.3273 204.592 46.6593L203.946 48.04Z" fill="#231F20"/>
<path d="M157.123 47.9504C158.454 44.8117 159.268 42.0702 152.613 41.9907H119.735L121.335 38.554H110.259L108.67 41.9609H85.5464C85.5464 41.9609 79.2589 41.6927 76.8254 46.8181L73.8455 53.2745C72.5543 56.1451 74.1733 57.8535 78.0074 57.8535H95.6779L98.2108 54.0095C96.7591 54.4904 95.2405 54.7384 93.7112 54.7445H86.6589C86.6589 54.7445 83.9174 54.9531 84.9008 53.046L87.8807 46.6691C87.8807 46.6691 88.4071 45.0699 91.0095 45.0401H107.27L103.296 53.6916C102.661 55.4597 102.482 57.8634 108.024 57.8535H121.752L124.165 54.1585C123.011 54.5539 121.8 54.7585 120.58 54.7644H115.792C114.451 54.7644 113.805 54.7644 114.322 53.7115L118.365 45.06H145.839C148.024 45.06 147.041 47.1161 144.846 47.126H134.188C131.814 47.126 128.526 47.3942 126.47 50.9899C126.47 50.9899 125.308 53.3837 125.129 53.8506C123.987 56.8304 125.328 57.8237 129.35 57.8237H138.171C140.644 57.8237 142.035 57.0688 142.829 56.1053L142.581 57.8237H153.596C153.298 57.3966 152.911 57.039 153.477 55.7477L157.123 47.8809V47.9504ZM143.952 52.4898C143.687 53.1877 143.281 53.8235 142.76 54.3571C142.291 54.6481 141.74 54.7804 141.19 54.7346H138.002C137.409 54.8049 136.809 54.7014 136.274 54.4366C136.045 54.2379 136.045 53.8903 136.274 53.3738L137.148 51.5064C137.555 50.6224 138.548 50.1853 140.127 50.1853H145.064L143.952 52.4898Z" fill="#CF4044"/>
<path d="M107.915 58.4597C105.263 58.4597 103.604 57.9333 102.83 56.8307C102.553 56.3345 102.397 55.78 102.374 55.2122C102.352 54.6444 102.464 54.0793 102.7 53.5628V53.5131L106.326 45.6563H90.9698C88.8441 45.6563 88.3773 46.8681 88.3574 46.9177V46.9674L85.3776 53.3443C85.2286 53.6323 85.1888 53.8509 85.2484 53.9502C85.308 54.0495 86.1424 54.278 86.5894 54.2482H93.6318C95.0964 54.2449 96.5513 54.0102 97.9426 53.5529L99.5418 52.9668L95.9064 58.4696H77.9776C75.6434 58.4696 74.0044 57.8538 73.2694 56.6917C72.9537 56.1469 72.7875 55.5284 72.7875 54.8988C72.7875 54.2691 72.9537 53.6507 73.2694 53.1059L76.2493 46.6396C78.8219 41.2461 85.1888 41.4547 85.4968 41.4646H108.243L109.842 38.0576H122.139L120.54 41.5043H152.613C155.593 41.5043 157.391 42.0904 158.166 43.2624C159.04 44.6034 158.414 46.3714 157.629 48.2289L154.004 56.046C153.616 56.94 153.765 57.1486 154.004 57.4664L154.689 58.4597H141.975L142.104 57.5459C140.91 58.1905 139.566 58.5059 138.21 58.4597H129.38C126.768 58.4597 125.288 58.0127 124.612 57.0194C124.241 56.4281 124.117 55.715 124.265 55.0329L122.01 58.4895H107.915V58.4597ZM103.733 53.9999C103.553 54.3428 103.458 54.7246 103.458 55.1123C103.458 55.5 103.553 55.8819 103.733 56.2248C104.27 56.9897 105.72 57.3969 107.915 57.3969H121.335L122.795 55.1819C122.03 55.3373 121.251 55.4171 120.47 55.4202H115.504C114.57 55.4202 113.944 55.4203 113.627 54.9038C113.529 54.6943 113.485 54.4638 113.499 54.2332C113.513 54.0025 113.584 53.7789 113.706 53.5827L117.898 44.6431H145.71C147.031 44.6431 147.488 45.2987 147.488 45.9046C147.488 46.8283 146.355 47.8117 144.677 47.8216H134.188C131.496 47.8216 128.754 48.2487 126.957 51.3975C126.649 52.0332 125.794 53.831 125.645 54.1886C125.228 55.2713 125.179 56.0162 125.496 56.4831C125.933 57.1287 127.195 57.4764 129.35 57.4764H138.171C140.157 57.4764 141.578 56.9599 142.402 55.9566L143.654 54.4468L143.227 57.4764H152.683C152.582 56.8778 152.683 56.2627 152.971 55.7282L156.606 47.8713C157.272 46.3118 157.808 44.8914 157.232 43.9677C156.656 43.0439 155.146 42.736 152.603 42.7161H118.831L120.431 39.2794H110.587L108.998 42.6863H85.5166C85.4372 42.6863 79.5569 42.4976 77.2922 47.2256L74.3124 53.682C74.0808 54.0563 73.9484 54.4834 73.9275 54.9231C73.9066 55.3627 73.9981 55.8005 74.1932 56.195C74.7196 57.0195 76.0605 57.4664 77.9677 57.4664H95.3998L96.9493 55.1123C95.8916 55.3408 94.8132 55.4606 93.7311 55.4699H86.6986C86.3609 55.4699 84.9306 55.5395 84.3644 54.6852C84.2117 54.424 84.1362 54.1248 84.1468 53.8224C84.1573 53.5199 84.2535 53.2267 84.424 52.9768L87.4039 46.6396C87.5231 46.3416 88.278 44.653 91.0492 44.653H108.183L103.733 53.9999ZM114.66 54.2581C114.99 54.2758 115.322 54.2758 115.653 54.2581H120.54C121.692 54.2532 122.836 54.062 123.927 53.6919L124.781 53.3741C125.129 52.5993 125.904 51.0001 126.003 50.7915C128.109 47.1065 131.337 46.6198 134.217 46.6198H144.766C145.055 46.6367 145.344 46.5944 145.615 46.4953C145.887 46.3962 146.136 46.2425 146.345 46.0436C146.455 45.9145 146.475 45.8251 146.465 45.8152C146.455 45.8052 146.276 45.6662 145.799 45.6563H118.682L114.749 53.9999L114.66 54.2581ZM141.19 55.4004H138.002C137.275 55.4903 136.539 55.3403 135.906 54.9733C135.608 54.715 135.34 54.1985 135.777 53.2549L136.651 51.3776C137.158 50.2949 138.32 49.7387 140.127 49.7387H145.889L144.458 52.8278C144.16 53.6131 143.696 54.3247 143.097 54.9137C142.526 55.2636 141.858 55.4203 141.19 55.3607V55.4004ZM136.661 54.1389C137.094 54.2744 137.549 54.325 138.002 54.2879H141.19C141.619 54.3346 142.051 54.2405 142.422 54.0197C142.863 53.5403 143.201 52.9758 143.415 52.3609L144.111 50.8511H140.098C138.767 50.8511 137.932 51.1889 137.634 51.8444L136.75 53.7217C136.696 53.8405 136.666 53.9687 136.661 54.0992V54.1389Z" fill="#231F20"/>
<path d="M76.6863 37.7595C75.8917 36.7861 74.1998 36.2994 71.6106 36.2994H54.5261C52.2842 36.2105 50.061 36.7397 48.0995 37.8291C46.2864 38.9776 44.8659 40.651 44.0271 42.6266L39.8652 51.5662C38.7991 53.864 38.6766 55.5195 39.4977 56.5326C40.2824 57.4564 41.9312 57.9133 44.4641 57.9133H61.5387C63.8069 58.005 66.0579 57.4835 68.0546 56.4035C69.8696 55.2483 71.2901 53.568 72.1271 51.5861L76.2989 42.6465C77.3518 40.3818 77.4809 38.7595 76.6863 37.7794V37.7595ZM62.8399 50.8014C55.9564 55.152 48.4075 57.0194 45.954 54.9732C43.5006 52.927 47.1062 47.7619 54.0096 43.4213C60.9129 39.0806 68.4321 37.2033 70.8954 39.2395C73.3588 41.2758 69.7234 46.4508 62.8399 50.8014Z" fill="#CF4044"/>
<path d="M61.5387 58.4496H44.4641C41.7326 58.4496 39.9745 57.9331 39.0805 56.8703C38.1865 55.8075 38.1965 53.8209 39.3586 51.3277L43.5304 42.3882C44.4159 40.3156 45.9085 38.5598 47.8115 37.3522C49.8605 36.212 52.1829 35.6555 54.5261 35.7431H71.6106C74.4017 35.7431 76.1996 36.2894 77.1233 37.4118C78.1166 38.5839 77.9676 40.3917 76.7956 42.8649L72.6337 51.8045C71.7459 53.8895 70.2461 55.656 68.3328 56.8703C66.2512 57.9977 63.9042 58.5433 61.5387 58.4496ZM54.5261 36.8556C52.3861 36.7715 50.2637 37.2729 48.3876 38.3058C46.6761 39.4018 45.3334 40.9867 44.5336 42.855L40.3718 51.7946C39.3785 53.8706 39.2593 55.3406 39.9347 56.1551C40.6102 56.9696 42.11 57.3371 44.4641 57.3371H61.5387C63.7056 57.4301 65.8574 56.9359 67.7666 55.9068C69.4851 54.803 70.8315 53.2074 71.6305 51.3277L75.7923 42.3882C76.7856 40.3519 76.9048 38.9117 76.2592 38.1071C75.6136 37.3026 74.0144 36.8556 71.6106 36.8556H54.5261ZM49.0432 56.3438C47.8207 56.4159 46.6107 56.0652 45.6163 55.3506C45.2702 55.0721 44.9983 54.7124 44.825 54.3033C44.6517 53.8943 44.5823 53.4488 44.623 53.0064C44.8118 50.2153 48.3677 46.2521 53.6917 42.8948C60.8633 38.3654 68.591 36.5477 71.2034 38.7726C71.5487 39.0495 71.8201 39.4076 71.9935 39.8149C72.1668 40.2221 72.2366 40.666 72.1967 41.1068C72.0179 43.888 68.4619 47.8612 63.1379 51.2185C58.0324 54.4963 52.6885 56.3438 49.0432 56.3438ZM67.8461 38.9812C64.6775 38.9812 59.5621 40.5804 54.3274 43.888C48.5962 47.4937 45.9044 51.1291 45.7653 53.1355C45.7344 53.3992 45.77 53.6664 45.8689 53.9128C45.9678 54.1592 46.1268 54.3769 46.3315 54.546C48.3181 56.2048 55.2711 54.9135 62.5419 50.3345C68.2632 46.7189 70.955 43.0835 71.0941 41.077C71.1251 40.8134 71.0895 40.5461 70.9906 40.2997C70.8917 40.0534 70.7326 39.8357 70.5279 39.6666C69.7361 39.1439 68.7916 38.9025 67.8461 38.9812Z" fill="#231F20"/>
<path d="M107.15 57.7345C104.498 57.7345 102.84 57.1981 102.065 56.0956C101.788 55.5993 101.632 55.0448 101.61 54.4771C101.587 53.9093 101.699 53.3442 101.936 52.8277L105.571 44.9608H90.2049C88.0793 44.9608 87.6125 46.1726 87.5926 46.2223V46.272L84.6127 52.6489C84.4638 52.9468 84.424 53.1654 84.4836 53.2647C84.5432 53.364 85.3676 53.5826 85.8246 53.5528H92.8769C94.3417 53.5423 95.796 53.3044 97.1877 52.8475L98.777 52.2615L95.1515 57.7643H77.2128C74.8785 57.7643 73.2396 57.1484 72.5046 55.9863C72.1898 55.443 72.024 54.8263 72.024 54.1984C72.024 53.5705 72.1898 52.9537 72.5046 52.4105L75.4844 45.9343C78.0571 40.5407 84.424 40.7493 84.7319 40.7592H107.478L109.067 37.3423H121.374L119.775 40.789H151.779C154.759 40.789 156.556 41.3751 157.331 42.5471C158.205 43.8881 157.58 45.6561 156.795 47.5136L153.159 55.3804C152.762 56.2644 152.921 56.473 153.159 56.7909L153.378 57.0988L153.289 56.7313L153.626 56.5425L154.262 56.2148C154.988 55.3697 155.569 54.4097 155.98 53.374L159.953 44.7622C160.269 44.1743 160.503 43.546 160.649 42.8948C160.679 42.4256 160.586 41.9567 160.381 41.534L160.112 40.789H173.025L172.817 41.5539C172.94 41.4689 173.07 41.3926 173.204 41.3254C173.961 40.957 174.795 40.7732 175.637 40.789H184.527C187.358 40.789 189.126 41.4049 189.941 42.6862C190.666 43.8186 190.557 45.3979 189.633 47.3745L186.653 53.8408C186.334 54.4561 186.088 55.106 185.918 55.7777C185.908 56.1978 186.011 56.6129 186.216 56.9796L186.603 57.7742H170.611L172.201 56.5922C172.558 56.324 172.926 56.0558 173.293 55.7678C173.853 55.0226 174.326 54.2162 174.704 53.364L178.349 45.527C178.427 45.3767 178.484 45.2162 178.518 45.0502C178.224 44.9934 177.924 44.9701 177.624 44.9807H173.591C173.156 44.9547 172.72 45.019 172.31 45.1694C172.181 45.1694 171.933 45.3979 171.654 46.0038L168.009 53.8309C167.675 54.4587 167.421 55.1261 167.254 55.8174C167.239 56.238 167.343 56.6544 167.552 57.0193L167.9 57.804H141.18L141.31 56.8902C140.114 57.5402 138.766 57.8558 137.406 57.804H128.586C125.963 57.804 124.493 57.357 123.818 56.3638C123.447 55.7724 123.322 55.0594 123.47 54.3772L121.225 57.7146H107.2L107.15 57.7345ZM102.969 53.225C102.788 53.5696 102.693 53.9531 102.693 54.3424C102.693 54.7317 102.788 55.1152 102.969 55.4599C103.505 56.2148 104.955 56.622 107.15 56.622H120.57L122.03 54.407C121.265 54.5624 120.486 54.6422 119.706 54.6454H114.868C113.875 54.6454 113.229 54.6454 112.882 54.1289C112.781 53.9201 112.736 53.6892 112.75 53.458C112.764 53.2268 112.837 53.003 112.961 52.8078L117.153 43.8682H144.965C146.276 43.8682 146.743 44.5238 146.743 45.1297C146.743 46.0535 145.61 47.0368 143.932 47.0467H133.423C130.731 47.0467 127.99 47.4738 126.192 50.6325C125.884 51.2583 125.02 53.0561 124.881 53.4236C124.463 54.4964 124.414 55.2413 124.732 55.7082C125.169 56.3538 126.43 56.7015 128.586 56.7015H137.406C139.392 56.7015 140.803 56.185 141.637 55.1817L142.889 53.6719L142.462 56.7015H151.918C151.811 56.1062 151.913 55.4923 152.206 54.9632L155.841 47.0964C156.507 45.5469 157.043 44.1165 156.467 43.2027C155.891 42.2889 154.381 41.9611 151.838 41.9412H118.067L119.666 38.5045H109.822L108.233 41.9114H84.7518C84.6624 41.9114 78.7921 41.7227 76.5274 46.4508L73.5475 52.9071C73.316 53.2833 73.1836 53.712 73.1628 54.1532C73.1419 54.5945 73.2333 55.0338 73.4283 55.4301C73.9548 56.2446 75.2957 56.6915 77.2028 56.6915H94.5754L96.1249 54.3374C95.0672 54.5659 93.9888 54.6857 92.9067 54.695H85.8742C85.5365 54.695 84.1062 54.7546 83.54 53.9004C83.3873 53.6392 83.3118 53.34 83.3224 53.0375C83.3329 52.7351 83.429 52.4419 83.5996 52.1919L86.5795 45.8548C86.6887 45.5568 87.4535 43.8682 90.2248 43.8682H107.319L102.969 53.225ZM173.949 56.6021H184.954C184.848 56.2585 184.818 55.8959 184.865 55.5393C185.048 54.7668 185.325 54.0195 185.689 53.3144L188.669 46.8381C189.424 45.229 189.543 44.0172 189.047 43.2325C188.55 42.4478 186.951 41.832 184.567 41.832H175.677C175.011 41.8196 174.351 41.9624 173.75 42.2492C173.216 42.5711 172.714 42.9436 172.25 43.3616L170.89 44.5436L171.625 41.832H161.692C161.796 42.2134 161.826 42.6112 161.781 43.0041C161.61 43.7568 161.343 44.4844 160.986 45.1694L157.013 53.7812C156.581 54.781 156.034 55.7276 155.384 56.6021H166.231C166.128 56.2648 166.094 55.91 166.132 55.5592C166.321 54.7763 166.605 54.0192 166.976 53.3044L170.631 45.4674C170.86 44.8616 171.306 44.3624 171.883 44.0669C172.434 43.8575 173.022 43.7628 173.611 43.7888H177.644C178.637 43.7888 179.183 43.9278 179.452 44.2655C179.899 44.8118 179.501 45.6462 179.372 45.9243L175.727 53.7514C175.307 54.706 174.773 55.6065 174.138 56.4333L174.048 56.5227L173.949 56.6021ZM113.895 53.4832C114.226 53.5009 114.557 53.5009 114.888 53.4832H119.765C120.917 53.4783 122.061 53.2871 123.152 52.9171L124.006 52.5992C124.354 51.8244 125.129 50.2253 125.228 50.0167C127.334 46.3316 130.562 45.8448 133.443 45.8448H143.972C144.26 45.8618 144.549 45.8195 144.821 45.7204C145.092 45.6213 145.341 45.4676 145.551 45.2688C145.613 45.2063 145.654 45.1267 145.67 45.0403C145.67 45.0403 145.481 44.8913 145.005 44.8814H117.888L113.984 53.215L113.895 53.4832ZM215.587 57.7146H193.288C190.785 57.7146 189.216 57.3074 188.481 56.4829C187.746 55.6585 187.775 54.1587 188.729 52.1324L191.659 45.8349C192.33 44.1979 193.493 42.8096 194.987 41.8618C196.763 41.0037 198.729 40.6139 200.698 40.7294H217.495C219.998 40.7294 221.577 41.1268 222.332 41.9611C223.087 42.7955 223.057 44.2755 222.113 46.3018L219.68 51.5463H201.205L200.658 52.6985C200.561 52.8521 200.529 53.0378 200.569 53.215C200.569 53.215 200.797 53.523 201.95 53.523H212.608C213.998 53.523 214.962 53.5229 215.488 53.4336C216.244 53.312 216.986 53.1157 217.703 52.8475L219.273 52.3111L215.587 57.7146ZM200.688 41.8221C198.914 41.7194 197.142 42.0608 195.533 42.8153C194.24 43.6504 193.238 44.8647 192.662 46.2918L189.683 52.5992C188.957 54.1388 188.818 55.2215 189.265 55.738C189.712 56.2545 190.576 56.5922 193.238 56.5922H214.972L216.491 54.3474C216.165 54.4332 215.833 54.493 215.498 54.5262C214.507 54.6054 213.512 54.6353 212.518 54.6156H201.95C200.738 54.6156 199.963 54.3573 199.625 53.8011C199.489 53.5603 199.417 53.2883 199.417 53.0114C199.417 52.7346 199.489 52.4625 199.625 52.2218L200.46 50.4239H218.925L221.07 45.825C221.786 44.2854 221.925 43.2027 221.468 42.6862C221.011 42.1697 220.127 41.8221 217.495 41.8221H200.688ZM60.764 57.7146H43.749C41.0174 57.7146 39.2593 57.1981 38.3554 56.1353C37.4515 55.0725 37.4813 53.0859 38.6435 50.5928L42.8153 41.6532C43.704 39.5826 45.1958 37.8277 47.0963 36.6172C49.147 35.4813 51.4682 34.925 53.811 35.0081H70.8955C73.6866 35.0081 75.4845 35.5544 76.3983 36.6768C77.3916 37.8489 77.2426 39.6567 76.0705 42.13L71.9086 51.0695C71.0208 53.1545 69.521 54.921 67.6077 56.1353C65.5144 57.2697 63.1527 57.8155 60.7739 57.7146H60.764ZM53.7613 36.1206C51.6212 36.0355 49.4985 36.537 47.6228 37.5708C45.8991 38.6626 44.5481 40.2526 43.749 42.13L39.5871 51.0695C38.5938 53.1455 38.4746 54.6156 39.1401 55.4301C39.8056 56.2446 41.3254 56.6121 43.6794 56.6121H60.7739C62.9408 56.705 65.0926 56.2108 67.0018 55.1817C68.7203 54.078 70.0667 52.4824 70.8657 50.6027L75.0275 41.6631C76.0208 39.6766 76.14 38.1866 75.4944 37.392C74.8487 36.5974 73.2496 36.1206 70.8458 36.1206H53.7613ZM48.2784 55.6089C47.0554 55.6859 45.8437 55.3347 44.8515 54.6156C44.5033 54.3389 44.23 53.9794 44.0565 53.5699C43.883 53.1604 43.8148 52.714 43.8582 52.2714C44.047 49.4902 47.6029 45.5171 52.9269 42.1598C60.0985 37.6304 67.8262 35.8127 70.4386 38.0376C70.7832 38.3151 71.0542 38.6733 71.2274 39.0804C71.4007 39.4875 71.4709 39.9311 71.4318 40.3719C71.2531 43.163 67.6971 47.1262 62.3731 50.4835C57.2676 53.7614 51.9038 55.6089 48.2784 55.6089ZM67.0812 38.2462C63.9027 38.2462 58.7972 39.8454 53.5527 43.1531C47.8314 46.7587 45.1396 50.3941 45.0005 52.4005C44.9693 52.6633 45.0038 52.9297 45.1008 53.1759C45.1979 53.422 45.3546 53.6403 45.5567 53.811C47.5433 55.4797 54.4963 54.1785 61.7771 49.5995C67.4984 45.9839 70.1902 42.3485 70.3194 40.352C70.3543 40.089 70.3215 39.8214 70.2242 39.5746C70.1269 39.3278 69.9682 39.1099 69.7631 38.9415C68.9745 38.411 68.0283 38.1657 67.0812 38.2462ZM140.425 54.6255H137.237C136.51 54.7169 135.774 54.5668 135.141 54.1984C134.843 53.9401 134.575 53.4236 135.012 52.48L135.886 50.6027C136.393 49.52 137.555 48.9638 139.363 48.9638H145.124L143.693 52.0628C143.393 52.8442 142.929 53.5521 142.333 54.1388C141.766 54.5013 141.097 54.6719 140.425 54.6255ZM135.896 53.374C136.33 53.5059 136.785 53.5565 137.237 53.523H140.425C140.854 53.5641 141.285 53.4703 141.657 53.2548C142.096 52.7704 142.434 52.203 142.65 51.5861L143.346 50.0763H139.323C137.992 50.0763 137.158 50.414 136.86 51.0695L135.976 52.9469C135.921 53.0825 135.894 53.2277 135.896 53.374ZM210.393 48.4075H201.403L202.784 45.4277C203.005 44.8596 203.42 44.3881 203.956 44.0967C204.446 43.8773 204.979 43.7721 205.516 43.7888H210.045C210.335 43.7476 210.632 43.7838 210.904 43.8937C211.176 44.0036 211.414 44.1832 211.594 44.4145C211.723 44.6398 211.791 44.8949 211.791 45.1545C211.791 45.4141 211.723 45.6692 211.594 45.8945L210.393 48.4075ZM203.151 47.2951H209.677L210.542 45.4475C210.691 45.1396 210.661 45.0304 210.661 45.0204C210.468 44.9332 210.255 44.899 210.045 44.9211H205.516C205.148 44.9083 204.782 44.9761 204.443 45.1198C204.141 45.3033 203.91 45.5833 203.787 45.9144L203.151 47.2951Z" fill="white"/>
<path d="M223.693 68.9487C223.677 69.7445 223.35 70.5023 222.782 71.0595C222.213 71.6167 221.449 71.9287 220.653 71.9286L38.8819 71.9783L39.3686 72.455V65.0253C39.3841 64.2312 39.7099 63.4748 40.2761 62.9179C40.8423 62.361 41.6039 62.0478 42.3981 62.0454H224.169L223.683 61.5587L223.693 68.9487ZM224.189 61.0024H42.418C41.3642 61.0024 40.3536 61.421 39.6085 62.1661C38.8634 62.9113 38.4448 63.9218 38.4448 64.9756V72.9219H38.9315H220.703C221.757 72.9219 222.767 72.5033 223.512 71.7582C224.257 71.0131 224.676 70.0025 224.676 68.9487V61.0024H224.189Z" fill="#010101"/>
<path d="M55.3009 64.2007C55.8969 64.2007 56.1949 64.3795 56.1949 64.747C56.1949 65.1145 55.8969 65.2834 55.3009 65.2834H48.2486V66.6938H55.3009C55.8969 66.6938 56.1949 66.8726 56.1949 67.2401C56.1949 67.6077 55.8969 67.7765 55.3009 67.7765H48.2486V69.7631C48.2486 70.1207 47.9506 70.2995 47.3546 70.2995C46.7587 70.2995 46.4607 70.1207 46.4607 69.7631V64.7966C46.4607 64.5384 46.6991 64.2603 47.3546 64.2603H55.3009" fill="#010101"/>
<path d="M75.2163 69.7433C75.2163 70.1009 74.9283 70.2797 74.3323 70.2797C73.7363 70.2797 73.4383 70.1009 73.4383 69.7433V64.7769C73.4383 64.4193 73.7363 64.2405 74.3323 64.2405C74.9283 64.2405 75.2163 64.4193 75.2163 64.7769V69.7433Z" fill="#010101"/>
<path d="M103.138 64.747C103.138 65.1046 102.83 65.2834 102.234 65.2834H99.1545V69.7432C99.1545 70.1008 98.8565 70.2796 98.2605 70.2796C97.6645 70.2796 97.3665 70.1008 97.3665 69.7432V65.2834H94.3072C93.7113 65.2834 93.4133 65.1046 93.4133 64.747C93.4133 64.3795 93.7113 64.2007 94.3072 64.2007H102.254C102.84 64.2007 103.147 64.3795 103.147 64.747" fill="#010101"/>
<path d="M130.354 69.7631C130.354 70.1803 130.036 70.4981 129.44 70.3789C129.003 70.2995 127.096 69.2565 123.748 67.0117L122.417 66.1177V69.7432C122.417 70.1008 122.119 70.2796 121.523 70.2796C120.937 70.2796 120.639 70.1008 120.639 69.7432V64.7073C120.639 63.714 121.633 64.1212 121.633 64.1212C122.01 64.2802 124.086 65.5118 128.099 68.1441L128.615 68.4818V64.7371C128.615 64.3795 128.903 64.2007 129.489 64.2007C130.075 64.2007 130.393 64.3795 130.393 64.7371V69.7631" fill="#010101"/>
<path d="M158.285 69.7333C158.285 70.1009 157.987 70.2797 157.391 70.2797H149.445C149.196 70.2797 148.57 70.2797 148.551 69.7433V64.7769C148.551 64.2604 149.057 64.2504 149.445 64.2405H157.391C157.987 64.2405 158.285 64.4193 158.285 64.7868C158.285 65.1543 157.987 65.3232 157.391 65.3232H150.339V66.7336H157.391C157.987 66.7336 158.285 66.9124 158.285 67.2799C158.285 67.6474 157.987 67.8163 157.391 67.8163H150.339V69.2268H157.391C157.987 69.2268 158.285 69.4155 158.285 69.7731" fill="#010101"/>
<path d="M185.56 69.7432C185.56 70.2001 185.054 70.2796 184.666 70.2796H176.72C176.124 70.2796 175.826 70.1008 175.826 69.7333C175.826 69.3658 176.124 69.187 176.72 69.187H183.802V67.8063H176.651C175.945 67.8063 175.836 67.4984 175.836 67.1408V64.7271C175.836 64.2503 176.492 64.2106 176.73 64.2007H184.676C185.272 64.2007 185.57 64.3795 185.57 64.747C185.57 65.1145 185.272 65.2834 184.676 65.2834H177.624V66.7236H184.796C185.64 66.7236 185.61 67.1905 185.61 67.5481V69.7432" fill="#010101"/>
<path d="M213.233 69.7432C213.233 70.2001 212.737 70.2796 212.339 70.2796H204.393C203.797 70.2796 203.499 70.1008 203.499 69.7333C203.499 69.3658 203.797 69.187 204.393 69.187H211.445V67.8063H204.314C203.618 67.8063 203.499 67.4984 203.499 67.1408V64.7271C203.499 64.2503 204.155 64.2106 204.393 64.2007H212.339C212.935 64.2007 213.233 64.3795 213.233 64.747C213.233 65.1145 212.935 65.2834 212.339 65.2834H205.297V66.7236H212.419C213.273 66.7236 213.233 67.1905 213.233 67.5481V69.7432Z" fill="#010101"/>
<path d="M220.623 54.6354C220.955 54.6314 221.28 54.7262 221.557 54.9076C221.834 55.089 222.051 55.3488 222.18 55.6539C222.309 55.9591 222.344 56.2957 222.282 56.621C222.219 56.9462 222.06 57.2454 221.827 57.4804C221.593 57.7154 221.295 57.8755 220.97 57.9404C220.645 58.0053 220.308 57.972 220.002 57.8448C219.696 57.7175 219.435 57.5021 219.252 57.226C219.069 56.9498 218.973 56.6255 218.974 56.2942C218.972 56.0764 219.013 55.8604 219.094 55.6586C219.176 55.4568 219.297 55.2733 219.451 55.1189C219.604 54.9644 219.787 54.8421 219.988 54.7591C220.19 54.6761 220.406 54.634 220.623 54.6354ZM220.623 54.8936C220.342 54.8797 220.063 54.9505 219.822 55.0968C219.581 55.2431 219.389 55.4582 219.272 55.7144C219.154 55.9706 219.116 56.2561 219.163 56.5341C219.209 56.8122 219.337 57.0699 219.532 57.2742C219.726 57.4785 219.977 57.6199 220.252 57.6802C220.527 57.7405 220.814 57.7169 221.076 57.6125C221.338 57.5081 221.563 57.3277 221.721 57.0944C221.879 56.8612 221.964 56.586 221.964 56.3041C221.971 56.1229 221.941 55.9422 221.877 55.7727C221.813 55.6031 221.716 55.4481 221.591 55.3167C221.466 55.1853 221.316 55.0802 221.15 55.0075C220.984 54.9349 220.805 54.8961 220.623 54.8936ZM220.315 57.2576H220.027V55.4101C220.199 55.3975 220.372 55.3975 220.544 55.4101C220.746 55.3968 220.947 55.4453 221.12 55.5492C221.176 55.5939 221.221 55.6515 221.251 55.7172C221.28 55.7829 221.293 55.8548 221.289 55.9266C221.29 56.032 221.255 56.1344 221.19 56.2174C221.125 56.3003 221.034 56.3589 220.931 56.3835C221.09 56.3835 221.199 56.5624 221.239 56.8305C221.252 56.9886 221.292 57.1432 221.358 57.2874H221.05C220.978 57.1415 220.934 56.983 220.921 56.8206C220.919 56.7721 220.907 56.7247 220.885 56.6813C220.863 56.6379 220.833 56.5996 220.795 56.5687C220.758 56.5378 220.714 56.5151 220.668 56.502C220.621 56.489 220.572 56.4858 220.524 56.4928H220.315V57.2576ZM220.315 56.2644H220.554C220.792 56.2644 221.001 56.175 221.001 55.9465C221.001 55.7181 220.882 55.6287 220.554 55.6287H220.335L220.315 56.2644Z" fill="#010101"/>
</svg>
